<svg width="20" height="20" viewBox="0 0 20 20" fill="none" xmlns="http://www.w3.org/2000/svg">
<path d="M9.12516 15.5417H10.8751V10.875H15.5418V9.12504H10.8751V4.45837H9.12516V9.12504H4.4585V10.875H9.12516V15.5417ZM2.19248 19.9167C1.60316 19.9167 1.10433 19.7125 0.695996 19.3042C0.287663 18.8958 0.0834961 18.397 0.0834961 17.8077V2.19236C0.0834961 1.60304 0.287663 1.10421 0.695996 0.695874C1.10433 0.287541 1.60316 0.083374 2.19248 0.083374H17.8078C18.3971 0.083374 18.8959 0.287541 19.3043 0.695874C19.7126 1.10421 19.9168 1.60304 19.9168 2.19236V17.8077C19.9168 18.397 19.7126 18.8958 19.3043 19.3042C18.8959 19.7125 18.3971 19.9167 17.8078 19.9167H2.19248ZM2.19248 18.1667H17.8078C17.8975 18.1667 17.9798 18.1293 18.0546 18.0545C18.1294 17.9797 18.1668 17.8974 18.1668 17.8077V2.19236C18.1668 2.1026 18.1294 2.02032 18.0546 1.94552C17.9798 1.87074 17.8975 1.83335 17.8078 1.83335H2.19248C2.10272 1.83335 2.02044 1.87074 1.94564 1.94552C1.87086 2.02032 1.83347 2.1026 1.83347 2.19236V17.8077C1.83347 17.8974 1.87086 17.9797 1.94564 18.0545C2.02044 18.1293 2.10272 18.1667 2.19248 18.1667Z" fill="#791D8F"/>
</svg>
