<svg width="20" height="20" viewBox="0 0 20 20" fill="none" xmlns="http://www.w3.org/2000/svg">
<path d="M8.3668 14.4961L16.2104 6.65255L14.9809 5.42309L8.3668 12.0372L5.0418 8.71219L3.81234 9.94165L8.3668 14.4961ZM2.19248 19.9166C1.60316 19.9166 1.10433 19.7125 0.695996 19.3041C0.287663 18.8958 0.0834961 18.397 0.0834961 17.8076V2.19233C0.0834961 1.60301 0.287663 1.10418 0.695996 0.695844C1.10433 0.28751 1.60316 0.0833435 2.19248 0.0833435H17.8078C18.3971 0.0833435 18.8959 0.28751 19.3043 0.695844C19.7126 1.10418 19.9168 1.60301 19.9168 2.19233V17.8076C19.9168 18.397 19.7126 18.8958 19.3043 19.3041C18.8959 19.7125 18.3971 19.9166 17.8078 19.9166H2.19248ZM2.19248 18.1666H17.8078C17.8975 18.1666 17.9798 18.1293 18.0546 18.0545C18.1294 17.9797 18.1668 17.8974 18.1668 17.8076V2.19233C18.1668 2.10257 18.1294 2.02029 18.0546 1.94549C17.9798 1.87071 17.8975 1.83332 17.8078 1.83332H2.19248C2.10272 1.83332 2.02044 1.87071 1.94564 1.94549C1.87086 2.02029 1.83347 2.10257 1.83347 2.19233V17.8076C1.83347 17.8974 1.87086 17.9797 1.94564 18.0545C2.02044 18.1293 2.10272 18.1666 2.19248 18.1666Z" fill="#008C1F"/>
</svg>
